<?xml version="1.0" encoding="UTF-8" standalone="no"?>
<!DOCTYPE svg PUBLIC "-//W3C//DTD SVG 1.1//EN" "http://www.w3.org/Graphics/SVG/1.1/DTD/svg11.dtd">
<svg width="100%" height="100%" viewBox="0 0 60 60" version="1.1" xmlns="http://www.w3.org/2000/svg" xmlns:xlink="http://www.w3.org/1999/xlink" xml:space="preserve" xmlns:serif="http://www.serif.com/" style="fill-rule:evenodd;clip-rule:evenodd;">
    <g id="breadboard" transform="matrix(1,0,0,1,4.8,4.8)">
        <g id="icon" transform="matrix(1,0,0,1,-4.8,4.8)">
            <path d="M0,50.4L60,50.4L60,-9.6L0,-9.6L0,50.4ZM44.673,41.092C44.673,41.905 44.013,42.565 43.2,42.565C42.387,42.565 41.727,41.905 41.727,41.092C41.727,40.279 42.387,39.618 43.2,39.618C44.013,39.618 44.673,40.279 44.673,41.092ZM44.673,34.062C44.673,34.875 44.013,35.535 43.199,35.535C42.386,35.535 41.726,34.875 41.726,34.062C41.726,33.248 42.386,32.588 43.199,32.588C44.013,32.588 44.673,33.248 44.673,34.062ZM41.729,26.594C41.727,26.564 41.726,26.534 41.726,26.504C41.726,25.691 42.386,25.03 43.199,25.03C44.013,25.03 44.673,25.691 44.673,26.504L44.673,26.673C44.673,27.487 44.013,28.147 43.2,28.147C42.387,28.147 41.727,27.487 41.727,26.673C41.727,26.647 41.727,26.62 41.729,26.594ZM44.673,19.541C44.673,20.354 44.013,21.014 43.2,21.014C42.387,21.014 41.727,20.354 41.727,19.541C41.727,18.728 42.387,18.067 43.2,18.067C44.013,18.067 44.673,18.728 44.673,19.541ZM23.073,12.091C23.073,12.904 22.413,13.565 21.6,13.565C20.787,13.565 20.127,12.904 20.127,12.091C20.127,11.278 20.787,10.618 21.6,10.618C22.413,10.618 23.073,11.278 23.073,12.091ZM30.273,12.091C30.273,12.904 29.613,13.565 28.8,13.565C27.987,13.565 27.327,12.904 27.327,12.091C27.327,11.278 27.987,10.618 28.8,10.618C29.613,10.618 30.273,11.278 30.273,12.091ZM15.851,12.091C15.851,12.904 15.191,13.565 14.378,13.565C13.564,13.565 12.904,12.904 12.904,12.091C12.904,11.278 13.564,10.618 14.378,10.618C15.191,10.618 15.851,11.278 15.851,12.091ZM44.673,12.091C44.673,12.904 44.013,13.565 43.2,13.565C42.387,13.565 41.727,12.904 41.727,12.091C41.727,11.278 42.387,10.618 43.2,10.618C44.013,10.618 44.673,11.278 44.673,12.091ZM37.596,12.091C37.596,12.904 36.936,13.565 36.122,13.565C35.309,13.565 34.649,12.904 34.649,12.091C34.649,11.278 35.309,10.618 36.122,10.618C36.936,10.618 37.596,11.278 37.596,12.091ZM8.673,12.091C8.673,12.904 8.013,13.565 7.2,13.565C6.387,13.565 5.727,12.904 5.727,12.091C5.727,11.278 6.387,10.618 7.2,10.618C8.013,10.618 8.673,11.278 8.673,12.091Z" style="fill:rgb(90,90,87);fill-rule:nonzero;"/>
            <g id="connector8pin" transform="matrix(6.12323e-17,1,-1,6.12323e-17,50.4,35.6486)">
                <circle cx="5.4" cy="7.2" r="2.052" style="fill:none;stroke:rgb(154,145,108);stroke-width:1.22px;"/>
            </g>
            <g transform="matrix(6.12323e-17,1,-1,6.12323e-17,50.4,6.69113)">
                <g transform="matrix(1,0,0,1,-3.66486,30.0207)">
                    <text x="0px" y="0px" style="font-family:'OCRA', monospace;font-weight:500;font-size:3.3px;fill:white;">RX</text>
                </g>
                <g transform="matrix(1,0,0,1,-3.66486,22.8207)">
                    <text x="0px" y="0px" style="font-family:'OCRA', monospace;font-weight:500;font-size:3.3px;fill:white;">TX</text>
                </g>
                <g transform="matrix(1,0,0,1,-3.66631,15.7511)">
                    <text x="0px" y="0px" style="font-family:'OCRA', monospace;font-weight:500;font-size:3.3px;fill:white;">5V</text>
                </g>
                <g transform="matrix(1,0,0,1,-3.66631,44.4206)">
                    <text x="0px" y="0px" style="font-family:'OCRA', monospace;font-weight:500;font-size:3.3px;fill:white;">ST</text>
                </g>
                <g transform="matrix(1,0,0,1,-6.02482,37.2206)">
                    <text x="0px" y="0px" style="font-family:'OCRA', monospace;font-weight:500;font-size:3.3px;fill:white;">GND</text>
                </g>
                <g>
                    <g>
                        <path d="M7.2,39.6L9,41.4" style="fill:none;fill-rule:nonzero;stroke:white;stroke-width:0.58px;stroke-linecap:round;"/>
                        <path d="M9,41.4L9,45" style="fill:none;fill-rule:nonzero;stroke:white;stroke-width:0.58px;stroke-linecap:round;"/>
                        <path d="M9,45L7.2,46.8" style="fill:none;fill-rule:nonzero;stroke:white;stroke-width:0.58px;stroke-linecap:round;"/>
                        <path d="M3.6,46.8L1.8,45" style="fill:none;fill-rule:nonzero;stroke:white;stroke-width:0.58px;stroke-linecap:round;"/>
                        <path d="M1.8,45L1.8,41.4" style="fill:none;fill-rule:nonzero;stroke:white;stroke-width:0.58px;stroke-linecap:round;"/>
                        <path d="M1.8,41.4L3.6,39.6" style="fill:none;fill-rule:nonzero;stroke:white;stroke-width:0.58px;stroke-linecap:round;"/>
                        <path d="M9,27L9,30.6" style="fill:none;fill-rule:nonzero;stroke:white;stroke-width:0.58px;stroke-linecap:round;"/>
                        <path d="M9,30.6L7.2,32.4" style="fill:none;fill-rule:nonzero;stroke:white;stroke-width:0.58px;stroke-linecap:round;"/>
                        <path d="M3.6,32.4L1.8,30.6" style="fill:none;fill-rule:nonzero;stroke:white;stroke-width:0.58px;stroke-linecap:round;"/>
                        <path d="M7.2,32.4L9,34.2" style="fill:none;fill-rule:nonzero;stroke:white;stroke-width:0.58px;stroke-linecap:round;"/>
                        <path d="M9,34.2L9,37.8" style="fill:none;fill-rule:nonzero;stroke:white;stroke-width:0.58px;stroke-linecap:round;"/>
                        <path d="M9,37.8L7.2,39.6" style="fill:none;fill-rule:nonzero;stroke:white;stroke-width:0.58px;stroke-linecap:round;"/>
                        <path d="M3.6,39.6L1.8,37.8" style="fill:none;fill-rule:nonzero;stroke:white;stroke-width:0.58px;stroke-linecap:round;"/>
                        <path d="M1.8,37.8L1.8,34.2" style="fill:none;fill-rule:nonzero;stroke:white;stroke-width:0.58px;stroke-linecap:round;"/>
                        <path d="M1.8,34.2L3.6,32.4" style="fill:none;fill-rule:nonzero;stroke:white;stroke-width:0.58px;stroke-linecap:round;"/>
                        <path d="M7.2,18L9,19.8" style="fill:none;fill-rule:nonzero;stroke:white;stroke-width:0.58px;stroke-linecap:round;"/>
                        <path d="M9,19.8L9,23.4" style="fill:none;fill-rule:nonzero;stroke:white;stroke-width:0.58px;stroke-linecap:round;"/>
                        <path d="M9,23.4L7.2,25.2" style="fill:none;fill-rule:nonzero;stroke:white;stroke-width:0.58px;stroke-linecap:round;"/>
                        <path d="M3.6,25.2L1.8,23.4" style="fill:none;fill-rule:nonzero;stroke:white;stroke-width:0.58px;stroke-linecap:round;"/>
                        <path d="M1.8,23.4L1.8,19.8" style="fill:none;fill-rule:nonzero;stroke:white;stroke-width:0.58px;stroke-linecap:round;"/>
                        <path d="M1.8,19.8L3.6,18" style="fill:none;fill-rule:nonzero;stroke:white;stroke-width:0.58px;stroke-linecap:round;"/>
                        <path d="M9,27L7.2,25.2" style="fill:none;fill-rule:nonzero;stroke:white;stroke-width:0.58px;stroke-linecap:round;"/>
                        <path d="M3.6,25.2L1.8,27" style="fill:none;fill-rule:nonzero;stroke:white;stroke-width:0.58px;stroke-linecap:round;"/>
                        <path d="M1.8,30.6L1.8,27" style="fill:none;fill-rule:nonzero;stroke:white;stroke-width:0.58px;stroke-linecap:round;"/>
                        <path d="M9,9L7.2,10.8" style="fill:none;fill-rule:nonzero;stroke:white;stroke-width:0.58px;stroke-linecap:round;"/>
                        <path d="M3.6,10.8L1.8,9" style="fill:none;fill-rule:nonzero;stroke:white;stroke-width:0.58px;stroke-linecap:round;"/>
                        <path d="M7.2,10.8L9,12.6" style="fill:none;fill-rule:nonzero;stroke:white;stroke-width:0.58px;stroke-linecap:round;"/>
                        <path d="M9,12.6L9,16.2" style="fill:none;fill-rule:nonzero;stroke:white;stroke-width:0.58px;stroke-linecap:round;"/>
                        <path d="M9,16.2L7.2,18" style="fill:none;fill-rule:nonzero;stroke:white;stroke-width:0.58px;stroke-linecap:round;"/>
                        <path d="M3.6,18L1.8,16.2" style="fill:none;fill-rule:nonzero;stroke:white;stroke-width:0.58px;stroke-linecap:round;"/>
                        <path d="M1.8,16.2L1.8,12.6" style="fill:none;fill-rule:nonzero;stroke:white;stroke-width:0.58px;stroke-linecap:round;"/>
                        <path d="M1.8,12.6L3.6,10.8" style="fill:none;fill-rule:nonzero;stroke:white;stroke-width:0.58px;stroke-linecap:round;"/>
                        <path d="M7.2,3.6L3.6,3.6" style="fill:none;fill-rule:nonzero;stroke:white;stroke-width:0.58px;stroke-linecap:round;"/>
                        <path d="M9,5.4L7.2,3.6" style="fill:none;fill-rule:nonzero;stroke:white;stroke-width:0.58px;stroke-linecap:round;"/>
                        <path d="M3.6,3.6L1.8,5.4" style="fill:none;fill-rule:nonzero;stroke:white;stroke-width:0.58px;stroke-linecap:round;"/>
                        <path d="M1.8,9L1.8,5.4" style="fill:none;fill-rule:nonzero;stroke:white;stroke-width:0.58px;stroke-linecap:round;"/>
                        <path d="M7.2,46.8L3.6,46.8" style="fill:none;fill-rule:nonzero;stroke:white;stroke-width:0.58px;stroke-linecap:round;"/>
                    </g>
                </g>
            </g>
            <g transform="matrix(1,0,0,1,37.7256,-2.16)">
                <g transform="matrix(1,0,0,1,9.72298,30.0207)">
                    <text x="0px" y="0px" style="font-family:'OCRA', monospace;font-weight:500;font-size:3.3px;fill:white;">SMI7</text>
                </g>
                <g transform="matrix(1,0,0,1,9.72132,22.8207)">
                    <text x="0px" y="0px" style="font-family:'OCRA', monospace;font-weight:500;font-size:3.3px;fill:white;">VCC</text>
                </g>
                <g transform="matrix(1,0,0,1,9.72153,15.6206)">
                    <text x="0px" y="0px" style="font-family:'OCRA', monospace;font-weight:500;font-size:3.3px;fill:white;">B0</text>
                </g>
                <g transform="matrix(1,0,0,1,9.71986,44.4206)">
                    <text x="0px" y="0px" style="font-family:'OCRA', monospace;font-weight:500;font-size:3.3px;fill:white;">SMC9</text>
                </g>
                <g transform="matrix(1,0,0,1,9.72045,37.2206)">
                    <text x="0px" y="0px" style="font-family:'OCRA', monospace;font-weight:500;font-size:3.3px;fill:white;">GND</text>
                </g>
                <g>
                    <g>
                        <path d="M7.2,39.6L9,41.4" style="fill:none;fill-rule:nonzero;stroke:white;stroke-width:0.58px;stroke-linecap:round;"/>
                        <path d="M9,41.4L9,45" style="fill:none;fill-rule:nonzero;stroke:white;stroke-width:0.58px;stroke-linecap:round;"/>
                        <path d="M9,45L7.2,46.8" style="fill:none;fill-rule:nonzero;stroke:white;stroke-width:0.58px;stroke-linecap:round;"/>
                        <path d="M3.6,46.8L1.8,45" style="fill:none;fill-rule:nonzero;stroke:white;stroke-width:0.58px;stroke-linecap:round;"/>
                        <path d="M1.8,45L1.8,41.4" style="fill:none;fill-rule:nonzero;stroke:white;stroke-width:0.58px;stroke-linecap:round;"/>
                        <path d="M1.8,41.4L3.6,39.6" style="fill:none;fill-rule:nonzero;stroke:white;stroke-width:0.58px;stroke-linecap:round;"/>
                        <path d="M9,27L9,30.6" style="fill:none;fill-rule:nonzero;stroke:white;stroke-width:0.58px;stroke-linecap:round;"/>
                        <path d="M9,30.6L7.2,32.4" style="fill:none;fill-rule:nonzero;stroke:white;stroke-width:0.58px;stroke-linecap:round;"/>
                        <path d="M3.6,32.4L1.8,30.6" style="fill:none;fill-rule:nonzero;stroke:white;stroke-width:0.58px;stroke-linecap:round;"/>
                        <path d="M7.2,32.4L9,34.2" style="fill:none;fill-rule:nonzero;stroke:white;stroke-width:0.58px;stroke-linecap:round;"/>
                        <path d="M9,34.2L9,37.8" style="fill:none;fill-rule:nonzero;stroke:white;stroke-width:0.58px;stroke-linecap:round;"/>
                        <path d="M9,37.8L7.2,39.6" style="fill:none;fill-rule:nonzero;stroke:white;stroke-width:0.58px;stroke-linecap:round;"/>
                        <path d="M3.6,39.6L1.8,37.8" style="fill:none;fill-rule:nonzero;stroke:white;stroke-width:0.58px;stroke-linecap:round;"/>
                        <path d="M1.8,37.8L1.8,34.2" style="fill:none;fill-rule:nonzero;stroke:white;stroke-width:0.58px;stroke-linecap:round;"/>
                        <path d="M1.8,34.2L3.6,32.4" style="fill:none;fill-rule:nonzero;stroke:white;stroke-width:0.58px;stroke-linecap:round;"/>
                        <path d="M7.2,18L9,19.8" style="fill:none;fill-rule:nonzero;stroke:white;stroke-width:0.58px;stroke-linecap:round;"/>
                        <path d="M9,19.8L9,23.4" style="fill:none;fill-rule:nonzero;stroke:white;stroke-width:0.58px;stroke-linecap:round;"/>
                        <path d="M9,23.4L7.2,25.2" style="fill:none;fill-rule:nonzero;stroke:white;stroke-width:0.58px;stroke-linecap:round;"/>
                        <path d="M3.6,25.2L1.8,23.4" style="fill:none;fill-rule:nonzero;stroke:white;stroke-width:0.58px;stroke-linecap:round;"/>
                        <path d="M1.8,23.4L1.8,19.8" style="fill:none;fill-rule:nonzero;stroke:white;stroke-width:0.58px;stroke-linecap:round;"/>
                        <path d="M1.8,19.8L3.6,18" style="fill:none;fill-rule:nonzero;stroke:white;stroke-width:0.58px;stroke-linecap:round;"/>
                        <path d="M9,27L7.2,25.2" style="fill:none;fill-rule:nonzero;stroke:white;stroke-width:0.58px;stroke-linecap:round;"/>
                        <path d="M3.6,25.2L1.8,27" style="fill:none;fill-rule:nonzero;stroke:white;stroke-width:0.58px;stroke-linecap:round;"/>
                        <path d="M1.8,30.6L1.8,27" style="fill:none;fill-rule:nonzero;stroke:white;stroke-width:0.58px;stroke-linecap:round;"/>
                        <path d="M7.2,10.8L9,12.6" style="fill:none;fill-rule:nonzero;stroke:white;stroke-width:0.58px;stroke-linecap:round;"/>
                        <path d="M9,12.6L9,16.2" style="fill:none;fill-rule:nonzero;stroke:white;stroke-width:0.58px;stroke-linecap:round;"/>
                        <path d="M9,16.2L7.2,18" style="fill:none;fill-rule:nonzero;stroke:white;stroke-width:0.58px;stroke-linecap:round;"/>
                        <path d="M3.6,18L1.8,16.2" style="fill:none;fill-rule:nonzero;stroke:white;stroke-width:0.58px;stroke-linecap:round;"/>
                        <path d="M1.8,12.6L3.6,10.8" style="fill:none;fill-rule:nonzero;stroke:white;stroke-width:0.58px;stroke-linecap:round;"/>
                        <path d="M7.2,46.8L3.6,46.8" style="fill:none;fill-rule:nonzero;stroke:white;stroke-width:0.58px;stroke-linecap:round;"/>
                    </g>
                </g>
            </g>
            <g id="connector8pin1" serif:id="connector8pin" transform="matrix(6.12323e-17,1,-1,6.12323e-17,50.4,6.69113)">
                <circle cx="5.4" cy="7.2" r="2.052" style="fill:none;stroke:rgb(154,145,108);stroke-width:1.22px;"/>
            </g>
            <g id="connector8pin2" serif:id="connector8pin" transform="matrix(6.12323e-17,1,-1,6.12323e-17,50.4,6.69113)">
                <circle cx="5.4" cy="7.2" r="2.052" style="fill:none;stroke:rgb(154,145,108);stroke-width:1.22px;"/>
            </g>
            <g id="connector8pin3" serif:id="connector8pin" transform="matrix(6.12323e-17,1,-1,6.12323e-17,50.4,14.1598)">
                <circle cx="5.4" cy="7.2" r="2.052" style="fill:none;stroke:rgb(154,145,108);stroke-width:1.22px;"/>
            </g>
            <g id="connector8pin4" serif:id="connector8pin" transform="matrix(6.12323e-17,1,-1,6.12323e-17,50.4,21.07)">
                <circle cx="5.4" cy="7.2" r="2.052" style="fill:none;stroke:rgb(154,145,108);stroke-width:1.22px;"/>
            </g>
            <g id="connector8pin5" serif:id="connector8pin" transform="matrix(6.12323e-17,1,-1,6.12323e-17,50.4,28.5846)">
                <circle cx="5.4" cy="7.2" r="2.052" style="fill:none;stroke:rgb(154,145,108);stroke-width:1.22px;"/>
            </g>
            <g id="connector9pin" transform="matrix(6.12323e-17,1,-1,6.12323e-17,50.4,6.69113)">
                <circle cx="5.4" cy="14.4" r="2.052" style="fill:none;stroke:rgb(154,145,108);stroke-width:1.22px;"/>
            </g>
            <g id="connector10pin" transform="matrix(6.12323e-17,1,-1,6.12323e-17,50.4,6.69113)">
                <circle cx="5.4" cy="21.6" r="2.052" style="fill:none;stroke:rgb(154,145,108);stroke-width:1.22px;"/>
            </g>
            <g id="connector11pin" transform="matrix(6.12323e-17,1,-1,6.12323e-17,50.4,6.69113)">
                <circle cx="5.4" cy="28.8" r="2.052" style="fill:none;stroke:rgb(154,145,108);stroke-width:1.22px;"/>
            </g>
            <g id="connector12pin" transform="matrix(6.12323e-17,1,-1,6.12323e-17,50.4,6.69113)">
                <circle cx="5.4" cy="36" r="2.052" style="fill:none;stroke:rgb(154,145,108);stroke-width:1.22px;"/>
            </g>
            <g id="connector13pin" transform="matrix(6.12323e-17,1,-1,6.12323e-17,50.4,6.69113)">
                <circle cx="5.4" cy="43.2" r="2.052" style="fill:none;stroke:rgb(154,145,108);stroke-width:1.22px;"/>
            </g>
        </g>
        <g transform="matrix(1,0,0,1,20.5666,0.34836)">
            <text x="0px" y="0px" style="font-family:'OCRA', monospace;font-weight:500;font-size:4.176px;fill:white;">MOTHERBOARD</text>
        </g>
    </g>
</svg>
